<?xml version="1.0" encoding="UTF-8"?>
<svg xmlns="http://www.w3.org/2000/svg" width="600" height="800" viewBox="0 0 600 800" role="img" aria-labelledby="title desc">
  <title id="title">Original developer avatar</title>
  <desc id="desc">A geometric teal developer portrait created for the resume-builder Skill.</desc>
  <metadata>Original asset created for resume-builder-skill in 2026 and released under the MIT License.</metadata>
  <rect width="600" height="800" fill="#dcefed"/>
  <circle cx="300" cy="278" r="156" fill="#f2c9a5"/>
  <path d="M147 273c5-139 74-206 159-206 107 0 173 77 158 220-31-50-69-82-116-95-59 39-126 59-201 62z" fill="#183b48"/>
  <path d="M176 294c20-58 61-88 122-88 63 0 106 31 128 92v77c0 103-51 175-126 175-73 0-124-70-124-170z" fill="#f2c9a5"/>
  <rect x="198" y="303" width="92" height="58" rx="24" fill="none" stroke="#245b63" stroke-width="13"/>
  <rect x="310" y="303" width="92" height="58" rx="24" fill="none" stroke="#245b63" stroke-width="13"/>
  <path d="M290 330h20" stroke="#245b63" stroke-width="13"/>
  <circle cx="244" cy="331" r="10" fill="#183b48"/>
  <circle cx="356" cy="331" r="10" fill="#183b48"/>
  <path d="M270 430c20 17 42 17 62 0" fill="none" stroke="#a65f54" stroke-width="12" stroke-linecap="round"/>
  <path d="M213 510c23 26 52 40 87 40 36 0 66-15 89-42l35 70-124 91-124-91z" fill="#ffffff"/>
  <path d="M78 800c5-147 87-242 222-242s217 95 222 242z" fill="#287d78"/>
  <path d="M215 566l85 103 86-103 33 234H181z" fill="#205f67"/>
  <path d="M267 669h66v131h-66z" fill="#153f4a"/>
  <circle cx="300" cy="730" r="18" fill="#55c1b3"/>
</svg>
